<svg width="497" height="374" viewBox="0 0 497 374" fill="none" xmlns="http://www.w3.org/2000/svg">
  <path d="M139.21 63.8917C171.71 31.4017 214.91 13.4917 260.88 13.4917C306.85 13.4917 350.05 31.3917 382.55 63.8917C401.61 82.9517 415.64 105.692 423.99 130.502C425.23 134.202 427.27 137.592 429.92 140.452L444.08 155.822C437.96 117.552 420.03 82.2817 392.09 54.3417C357.22 19.4917 310.94 0.211689 261.67 0.00168904C212.4 -0.208311 165.17 19.1717 130.29 53.7417C96.1599 87.5717 76.7899 132.282 75.4199 180.072C78.0499 178.392 80.7099 176.742 83.4099 175.112C87.1199 172.872 89.5599 169.022 90.0699 164.722C94.6299 126.652 111.68 91.4217 139.22 63.8817L139.21 63.8917ZM382.55 310.072C350 342.622 306.7 360.522 260.66 360.472C214.68 360.412 170.82 342.052 138.5 309.352C121.98 292.652 109.3 273.152 100.89 251.942C98.4699 245.832 92.1199 242.232 85.6299 243.252C84.9599 243.362 84.2999 243.462 83.6399 243.572C92.4999 272.162 108.27 298.342 130.12 320.052C165.12 354.832 212.33 374.162 261.67 373.962C310.95 373.762 357.23 354.482 392.1 319.622C416.11 295.612 432.73 266.172 440.81 234.072C440.26 234.002 439.72 233.932 439.17 233.862C432.5 233.002 426.17 236.992 424.03 243.362C415.68 268.222 401.64 291.002 382.56 310.082L382.55 310.072Z" fill="white"/>
  <path d="M479.99 220.482C470.95 214.442 461 208.762 450.48 205.172C421.01 195.112 368.11 192.762 345.27 191.812C338.5 191.532 333.75 191.772 326.99 191.772C327.13 189.742 327.24 186.332 327.31 183.752C327.42 179.392 329.69 177.802 333.71 178.362C356.13 181.532 377.21 184.762 399.63 187.942C411.03 189.562 442.53 194.562 447.84 194.722C451.95 194.842 456.21 180.642 454.24 178.512C440.12 163.212 427.96 150.172 413.81 134.902C409.36 130.102 404.96 125.222 400.5 120.332C402.88 118.252 404.75 116.602 406.63 114.962C406.31 114.542 405.33 113.422 405.01 113.002C402.35 114.752 401.16 115.632 398.05 117.682C398.05 117.682 390.59 109.832 385.7 105.262C386.37 106.922 388.35 112.012 388.8 112.942C279.64 114.122 174.77 127.922 73.37 192.412C73.37 192.412 53.24 204.952 44.49 212.022C94.65 188.272 151.02 158.492 199.3 146.242C261.4 129.062 323.45 119.982 387.57 120.072C390.57 120.022 392.31 122.562 392.31 123.512C381.2 131.382 370.59 139.242 359.48 147.102C352.24 152.212 344.22 157.882 336.99 162.982C316.13 177.702 318.06 172.872 253.16 179.642C226.23 182.452 199.2 185.982 172.55 190.822C152.09 194.692 131.07 197.722 110.92 203.082C82.79 208.812 54.48 217.732 28.08 228.972C28.26 229.442 28.14 230.542 28.63 230.392C89.68 212.202 123.08 207.742 180.78 198.612C223.67 192.422 266.68 186.792 309.89 183.352C313.16 183.262 317.77 182.262 319.78 184.662C319.94 184.842 320.08 185.052 320.21 185.272C322.19 188.642 319.73 192.922 315.83 193.162C310.78 193.482 305.74 193.822 300.69 194.182C290.24 194.932 280.07 195.752 270.2 196.632C213.18 201.762 156.31 209.212 100.15 220.312C77.46 224.872 56.26 230.362 34.41 237.432C24.76 240.562 1.89 249.312 0 250.172C0.21 250.692 0.42 251.212 0.62 251.732C2.45 251.142 28.49 244.802 38.05 242.322C68.56 234.372 120.66 226.442 162.7 222.492C205.44 218.482 248.31 215.422 291.24 214.712C354.98 213.672 417.77 221.572 480.6 231.832C486.61 232.802 491.67 233.522 496.68 234.232C490.46 228.592 487.04 225.162 479.99 220.452V220.482ZM394.19 126.352L443.38 179.752C445.06 181.662 443.5 184.652 440.96 184.342L342 170.032L394.19 126.342V126.352ZM325.22 202.682C325.09 204.262 324.29 205.762 322.94 206.612C322.13 207.122 321.17 207.412 320.17 207.412C226.68 207.412 153.42 217.432 93.68 227.392C178.19 206.392 282.66 200.662 325.46 198.322L325.21 202.672L325.22 202.682ZM333.45 209.292V204.032C333.45 200.932 335.99 198.402 339.09 198.492C388.39 199.952 453.11 202.632 480.39 227.392C431.87 215.102 366.72 209.782 333.44 209.292H333.45Z" fill="white"/>
</svg>
