<svg width="1920" height="374" viewBox="0 0 1920 374" fill="none" xmlns="http://www.w3.org/2000/svg" aria-hidden="true">
<g clip-path="url(#lhHeaderLogoClip)">
<path d="M139.21 63.8902C171.71 31.4002 214.91 13.4902 260.88 13.4902C306.85 13.4902 350.05 31.3902 382.55 63.8902C401.61 82.9502 415.64 105.69 423.99 130.5C425.23 134.2 427.27 137.59 429.92 140.45L444.08 155.82C437.96 117.55 420.03 82.2802 392.09 54.3402C357.22 19.4902 310.94 0.210224 261.67 0.000224196C212.4 -0.209776 165.17 19.1702 130.29 53.7402C96.16 87.5702 76.79 132.28 75.42 180.07C78.05 178.39 80.71 176.74 83.41 175.11C87.12 172.87 89.56 169.02 90.07 164.72C94.63 126.65 111.68 91.4202 139.22 63.8802L139.21 63.8902ZM382.55 310.07C350 342.62 306.7 360.52 260.66 360.47C214.68 360.41 170.82 342.05 138.5 309.35C121.98 292.65 109.3 273.15 100.89 251.94C98.47 245.83 92.12 242.23 85.63 243.25C84.96 243.36 84.3 243.46 83.64 243.57C92.5 272.16 108.27 298.34 130.12 320.05C165.12 354.83 212.33 374.16 261.67 373.96C310.95 373.76 357.23 354.48 392.1 319.62C416.11 295.61 432.73 266.17 440.81 234.07C440.26 234 439.72 233.93 439.17 233.86C432.5 233 426.17 236.99 424.03 243.36C415.68 268.22 401.64 291 382.56 310.08L382.55 310.07Z" fill="white"/>
<path d="M479.99 220.48C470.95 214.44 461 208.76 450.48 205.17C421.01 195.11 368.11 192.76 345.27 191.81C338.5 191.53 333.75 191.77 326.99 191.77C327.13 189.74 327.24 186.33 327.31 183.75C327.42 179.39 329.69 177.8 333.71 178.36C356.13 181.53 377.21 184.76 399.63 187.94C411.03 189.56 442.53 194.56 447.84 194.72C451.95 194.84 456.21 180.64 454.24 178.51C440.12 163.21 427.96 150.17 413.81 134.9C409.36 130.1 404.96 125.22 400.5 120.33C402.88 118.25 404.75 116.6 406.63 114.96C406.31 114.54 405.33 113.42 405.01 113C402.35 114.75 401.16 115.63 398.05 117.68C398.05 117.68 390.59 109.83 385.7 105.26C386.37 106.92 388.35 112.01 388.8 112.94C279.64 114.12 174.77 127.92 73.37 192.41C73.37 192.41 53.24 204.95 44.49 212.02C94.65 188.27 151.02 158.49 199.3 146.24C261.4 129.06 323.45 119.98 387.57 120.07C390.57 120.02 392.31 122.56 392.31 123.51C381.2 131.38 370.59 139.24 359.48 147.1C352.24 152.21 344.22 157.88 336.99 162.98C316.13 177.7 318.06 172.87 253.16 179.64C226.23 182.45 199.2 185.98 172.55 190.82C152.09 194.69 131.07 197.72 110.92 203.08C82.79 208.81 54.48 217.73 28.08 228.97C28.26 229.44 28.14 230.54 28.63 230.39C89.68 212.2 123.08 207.74 180.78 198.61C223.67 192.42 266.68 186.79 309.89 183.35C313.16 183.26 317.77 182.26 319.78 184.66C319.94 184.84 320.08 185.05 320.21 185.27C322.19 188.64 319.73 192.92 315.83 193.16C310.78 193.48 305.74 193.82 300.69 194.18C290.24 194.93 280.07 195.75 270.2 196.63C213.18 201.76 156.31 209.21 100.15 220.31C77.46 224.87 56.26 230.36 34.41 237.43C24.76 240.56 1.89 249.31 0 250.17C0.21 250.69 0.42 251.21 0.62 251.73C2.45 251.14 28.49 244.8 38.05 242.32C68.56 234.37 120.66 226.44 162.7 222.49C205.44 218.48 248.31 215.42 291.24 214.71C354.98 213.67 417.77 221.57 480.6 231.83C486.61 232.8 491.67 233.52 496.68 234.23C490.46 228.59 487.04 225.16 479.99 220.45V220.48ZM394.19 126.35L443.38 179.75C445.06 181.66 443.5 184.65 440.96 184.34L342 170.03L394.19 126.34V126.35ZM325.22 202.68C325.09 204.26 324.29 205.76 322.94 206.61C322.13 207.12 321.17 207.41 320.17 207.41C226.68 207.41 153.42 217.43 93.68 227.39C178.19 206.39 282.66 200.66 325.46 198.32L325.21 202.67L325.22 202.68ZM333.45 209.29V204.03C333.45 200.93 335.99 198.4 339.09 198.49C388.39 199.95 453.11 202.63 480.39 227.39C431.87 215.1 366.72 209.78 333.44 209.29H333.45Z" fill="white"/>
<path d="M556.96 202.58V48.0498H582.87V179.18H653.67V202.58H556.96Z" fill="white"/>
<path d="M741.22 203.46C725.73 203.46 712.04 200.08 700.13 193.3C688.22 186.53 678.87 177.11 672.1 165.04C665.32 152.97 661.94 139.14 661.94 123.54C661.94 107.94 665.32 94.1399 672.1 82.1499C678.87 70.1599 688.14 60.7399 699.91 53.8999C711.67 47.0599 725.22 43.6299 740.56 43.6299C755.9 43.6299 769.71 47.0499 781.54 53.8999C793.38 60.7399 802.61 70.1599 809.23 82.1499C815.85 94.1499 819.17 107.94 819.17 123.54C819.17 139.14 815.86 152.98 809.23 165.04C802.6 177.11 793.45 186.53 781.76 193.3C770.07 200.07 756.56 203.46 741.22 203.46ZM741.22 180.06C751.34 180.06 760.28 177.63 768.02 172.78C775.76 167.92 781.83 161.27 786.22 152.8C790.61 144.34 792.81 134.59 792.81 123.55C792.81 112.51 790.58 102.95 786.11 94.4099C781.64 85.8799 775.5 79.2199 767.68 74.4299C759.86 69.6499 750.82 67.2499 740.54 67.2499C730.26 67.2499 721.45 69.6399 713.63 74.4299C705.81 79.2099 699.63 85.8399 695.09 94.2999C690.55 102.76 688.28 112.51 688.28 123.55C688.28 134.59 690.55 144.34 695.09 152.8C699.63 161.26 705.88 167.92 713.85 172.78C721.81 177.64 730.93 180.06 741.21 180.06H741.22Z" fill="white"/>
<path d="M846.64 202.58V48.0498H873.44L956.52 159.75V48.0498H982.43V202.58H956.52L872.54 89.5498V202.58H846.63H846.64Z" fill="white"/>
<path d="M1091.19 205.23C1075.4 205.23 1061.37 201.81 1049.09 194.96C1036.81 188.12 1027.16 178.7 1020.17 166.7C1013.17 154.71 1009.67 140.98 1009.67 125.53C1009.67 110.08 1013.17 95.9099 1020.17 83.9199C1027.17 71.9299 1036.81 62.5099 1049.09 55.6699C1061.37 48.8299 1075.41 45.3999 1091.19 45.3999C1100.27 45.3999 1108.79 46.7999 1116.76 49.5999C1124.73 52.3999 1131.91 56.1899 1138.31 60.9699C1144.71 65.7499 1149.92 71.3099 1153.94 77.6399L1132.95 90.8899C1130.12 86.6199 1126.47 82.7999 1122.01 79.4099C1117.54 76.0299 1112.66 73.4199 1107.38 71.5699C1102.09 69.7299 1096.69 68.8099 1091.19 68.8099C1080.47 68.8099 1070.98 71.2399 1062.71 76.0899C1054.45 80.9499 1047.93 87.6099 1043.17 96.0699C1038.4 104.53 1036.02 114.36 1036.02 125.54C1036.02 136.72 1038.37 146.15 1043.05 154.68C1047.74 163.22 1054.29 169.91 1062.71 174.77C1071.12 179.63 1080.83 182.06 1091.85 182.06C1100.48 182.06 1108.23 180.29 1115.08 176.76C1121.93 173.23 1127.32 168.3 1131.27 161.97C1135.21 155.64 1137.19 148.36 1137.19 140.11L1161.98 137.02C1161.98 151 1158.97 163.11 1152.94 173.33C1146.91 183.56 1138.57 191.43 1127.93 196.95C1117.28 202.47 1105.04 205.23 1091.19 205.23ZM1099.68 142.09V121.34H1161.99V138.56L1148.14 142.09H1099.68Z" fill="white"/>
<path d="M1187.01 202.58V48.0498H1212.92V202.58H1187.01ZM1207.33 135.03V111.63H1302.03V135.03H1207.33ZM1291.53 202.58V48.0498H1317.44V202.58H1291.53Z" fill="white"/>
<path d="M1423.97 205.23C1408.48 205.23 1394.79 201.85 1382.88 195.07C1370.97 188.3 1361.62 178.88 1354.85 166.81C1348.07 154.74 1344.69 140.91 1344.69 125.31C1344.69 109.71 1348.07 95.9099 1354.85 83.9199C1361.62 71.9299 1370.89 62.5099 1382.66 55.6699C1394.42 48.8299 1407.97 45.3999 1423.31 45.3999C1438.65 45.3999 1452.46 48.8199 1464.29 55.6699C1476.13 62.5099 1485.36 71.9299 1491.98 83.9199C1498.6 95.9199 1501.92 109.71 1501.92 125.31C1501.92 140.91 1498.61 154.75 1491.98 166.81C1485.35 178.88 1476.2 188.3 1464.51 195.07C1452.82 201.84 1439.31 205.23 1423.97 205.23ZM1423.97 181.83C1434.09 181.83 1443.03 179.4 1450.77 174.55C1458.51 169.69 1464.58 163.04 1468.97 154.57C1473.36 146.11 1475.56 136.36 1475.56 125.32C1475.56 114.28 1473.33 104.72 1468.86 96.1799C1464.39 87.6499 1458.25 80.9899 1450.43 76.1999C1442.61 71.4199 1433.57 69.0199 1423.29 69.0199C1413.01 69.0199 1404.2 71.4099 1396.38 76.1999C1388.56 80.9799 1382.38 87.6099 1377.84 96.0699C1373.3 104.53 1371.03 114.28 1371.03 125.32C1371.03 136.36 1373.3 146.11 1377.84 154.57C1382.38 163.03 1388.63 169.69 1396.6 174.55C1404.56 179.41 1413.68 181.83 1423.96 181.83H1423.97Z" fill="white"/>
<path d="M1589.02 205.67C1576.66 205.67 1565.83 203.2 1556.52 198.28C1547.21 193.35 1539.99 186.4 1534.85 177.42C1529.72 168.45 1527.15 157.99 1527.15 146.07V48.0498H1553.06V146.06C1553.06 153.27 1554.58 159.56 1557.64 164.93C1560.69 170.3 1564.97 174.5 1570.48 177.51C1575.99 180.53 1582.32 182.04 1589.46 182.04C1596.6 182.04 1603.2 180.53 1608.78 177.51C1614.36 174.5 1618.64 170.3 1621.62 164.93C1624.6 159.56 1626.09 153.27 1626.09 146.06V48.0498H1652V146.06C1652 157.98 1649.43 168.43 1644.29 177.41C1639.15 186.39 1631.86 193.34 1622.4 198.27C1612.94 203.2 1601.81 205.66 1589.01 205.66L1589.02 205.67Z" fill="white"/>
<path d="M1738.21 205.23C1730.02 205.23 1722.54 204.27 1715.76 202.36C1708.98 200.45 1703.03 197.8 1697.89 194.41C1692.75 191.03 1688.51 187.24 1685.16 183.04C1681.81 178.84 1679.46 174.47 1678.13 169.9L1703.59 162.17C1705.52 167.62 1709.32 172.4 1714.98 176.52C1720.64 180.64 1727.63 182.78 1735.97 182.92C1745.65 182.92 1753.31 180.93 1758.97 176.96C1764.63 172.99 1767.46 167.76 1767.46 161.29C1767.46 155.41 1765.08 150.59 1760.31 146.83C1755.54 143.08 1749.14 140.17 1741.1 138.11L1721.89 133.25C1714.59 131.34 1708 128.54 1702.12 124.86C1696.23 121.18 1691.62 116.55 1688.27 110.95C1684.92 105.36 1683.25 98.7301 1683.25 91.0801C1683.25 76.6601 1688.01 65.4401 1697.54 57.4201C1707.07 49.4001 1720.69 45.3901 1738.41 45.3901C1748.39 45.3901 1757.13 46.9001 1764.65 49.9201C1772.17 52.9401 1778.39 57.0601 1783.3 62.2801C1788.21 67.5101 1791.86 73.4301 1794.24 80.0501L1769.23 88.0001C1767 82.1201 1763.12 77.2601 1757.62 73.4301C1752.11 69.6001 1745.26 67.6901 1737.07 67.6901C1728.88 67.6901 1721.92 69.6801 1717.08 73.6501C1712.24 77.6201 1709.82 83.1401 1709.82 90.2101C1709.82 95.9501 1711.72 100.4 1715.52 103.56C1719.32 106.73 1724.49 109.12 1731.04 110.74L1750.25 115.38C1764.24 118.77 1775.11 124.58 1782.86 132.82C1790.6 141.06 1794.47 150.19 1794.47 160.19C1794.47 169.02 1792.31 176.82 1787.99 183.59C1783.67 190.36 1777.3 195.66 1768.89 199.48C1760.48 203.31 1750.24 205.22 1738.18 205.22L1738.21 205.23Z" fill="white"/>
<path d="M1823.07 202.58V48.0498H1919.33V71.4498H1848.98V112.51H1911.07V135.47H1848.98V179.18H1920V202.58H1823.07Z" fill="white"/>
<path d="M556.66 327.48V273.87H573.58C577.26 273.87 580.4 274.43 583 275.56C585.6 276.68 587.62 278.33 589.05 280.5C590.48 282.67 591.2 285.31 591.2 288.43C591.2 291.03 590.61 293.32 589.44 295.28C588.26 297.25 586.61 298.84 584.46 300.07C587.12 301.35 589.17 303.06 590.63 305.2C592.08 307.34 592.81 309.9 592.81 312.86C592.81 315.98 592.12 318.62 590.74 320.79C589.36 322.96 587.41 324.62 584.88 325.77C582.35 326.92 579.33 327.49 575.8 327.49H556.65L556.66 327.48ZM563.09 297.38H575.19C578.15 297.38 580.47 296.59 582.16 295.01C583.85 293.43 584.69 291.23 584.69 288.42C584.69 285.61 583.71 283.28 581.74 281.72C579.77 280.16 577 279.39 573.43 279.39H563.09V297.39V297.38ZM563.09 321.66H575.5C578.87 321.66 581.51 320.86 583.43 319.25C585.34 317.64 586.3 315.44 586.3 312.63C586.3 309.62 585.2 307.26 583.01 305.55C580.82 303.84 577.75 302.98 573.82 302.98H563.1V321.67L563.09 321.66Z" fill="white"/>
<path d="M605.37 327.48V273.87H622.83C626.3 273.87 629.38 274.56 632.06 275.94C634.74 277.32 636.83 279.23 638.34 281.68C639.85 284.13 640.6 286.94 640.6 290.1C640.6 293.26 639.78 296.07 638.15 298.53C636.51 300.98 634.29 302.91 631.49 304.31C628.68 305.71 625.52 306.42 621.99 306.42H611.88V327.48H605.37ZM611.87 300.45H623.74C625.68 300.45 627.42 300 628.95 299.11C630.48 298.22 631.72 296.99 632.66 295.44C633.6 293.88 634.08 292.11 634.08 290.12C634.08 287.06 633.02 284.57 630.9 282.65C628.78 280.74 626.04 279.78 622.67 279.78H611.87V300.46V300.45ZM635.62 327.48L622.76 305.5L627.89 302.13L642.75 327.48H635.63H635.62Z" fill="white"/>
<path d="M648.94 327.48L670.77 273.87H677.36L655.84 327.48H648.95H648.94ZM659.28 312.24V306.42H689.07V312.24H659.28ZM692.52 327.48L671 273.87H677.51L699.34 327.48H692.52Z" fill="white"/>
<path d="M709.14 327.48V273.87H715.73L747.67 316.91V273.87H754.18V327.48H747.67L715.66 284.21V327.48H709.15H709.14Z" fill="white"/>
<path d="M770.33 327.48V273.87H786.64C791.69 273.87 796.15 275.01 800 277.28C803.85 279.55 806.88 282.7 809.08 286.74C811.27 290.77 812.37 295.42 812.37 300.68C812.37 305.94 811.27 310.51 809.08 314.54C806.89 318.57 803.86 321.74 800 324.04C796.14 326.34 791.69 327.49 786.64 327.49H770.33V327.48ZM776.84 321.51H786.64C789.35 321.51 791.85 320.99 794.15 319.94C796.45 318.9 798.47 317.4 800.24 315.46C802 313.52 803.38 311.29 804.38 308.76C805.38 306.23 805.87 303.54 805.87 300.68C805.87 297.82 805.37 295.13 804.38 292.6C803.38 290.07 802.01 287.84 800.24 285.9C798.48 283.96 796.45 282.47 794.15 281.42C791.85 280.38 789.35 279.85 786.64 279.85H776.84V321.51Z" fill="white"/>
<path d="M824.93 327.48V273.87H831.44V327.48H824.93Z" fill="white"/>
<path d="M847.6 327.48V273.87H854.19L886.13 316.91V273.87H892.64V327.48H886.13L854.12 284.21V327.48H847.61H847.6Z" fill="white"/>
<path d="M933.07 328.4C927.61 328.4 922.78 327.21 918.59 324.84C914.4 322.47 911.13 319.2 908.75 315.04C906.38 310.88 905.19 306.12 905.19 300.76C905.19 295.4 906.38 290.49 908.75 286.32C911.12 282.16 914.4 278.89 918.59 276.52C922.78 274.15 927.6 272.96 933.07 272.96C935.93 272.96 938.71 273.43 941.42 274.38C944.12 275.33 946.6 276.61 948.85 278.25C951.09 279.89 952.91 281.75 954.29 283.84L949.16 287.36C948.14 285.73 946.76 284.26 945.03 282.95C943.3 281.64 941.39 280.64 939.32 279.93C937.25 279.21 935.17 278.86 933.08 278.86C928.94 278.86 925.27 279.79 922.05 281.66C918.83 283.53 916.31 286.09 914.47 289.36C912.63 292.63 911.71 296.43 911.71 300.77C911.71 305.11 912.61 308.7 914.43 311.99C916.24 315.29 918.77 317.88 922.01 319.76C925.25 321.65 928.94 322.59 933.08 322.59C936.55 322.59 939.63 321.86 942.31 320.41C944.99 318.96 947.1 316.94 948.63 314.36C950.16 311.78 950.93 308.81 950.93 305.44L957.13 304.98C957.13 309.68 956.11 313.77 954.07 317.27C952.03 320.77 949.19 323.5 945.57 325.47C941.95 327.44 937.78 328.42 933.09 328.42L933.07 328.4ZM937.74 305.73V300.14H957.12V305.2L954.06 305.74H937.75L937.74 305.73Z" fill="white"/>
<path d="M1002.45 328.56C999.44 328.56 996.76 327.97 994.41 326.8C992.06 325.63 990.21 323.97 988.86 321.82C987.51 319.68 986.83 317.25 986.83 314.54C986.83 312.29 987.26 310.28 988.13 308.49C988.99 306.7 990.16 305.08 991.61 303.63C993.06 302.18 994.66 300.83 996.4 299.61L1003.37 294.86C1004.65 293.94 1005.91 293 1007.16 292.03C1008.41 291.06 1009.47 289.98 1010.34 288.78C1011.21 287.58 1011.64 286.24 1011.64 284.76C1011.64 282.77 1010.96 281.19 1009.61 280.01C1008.26 278.84 1006.53 278.25 1004.44 278.25C1002.6 278.25 1001.03 278.86 999.73 280.09C998.43 281.31 997.78 282.82 997.78 284.61C997.78 286.14 998.24 287.51 999.16 288.71C1000.08 289.91 1001.23 291.33 1002.6 292.96L1012.02 304.29L1031.17 327.5H1023.36L1006.82 307.59L997.63 296.49C996.46 295.06 995.4 293.71 994.45 292.43C993.51 291.15 992.78 289.88 992.27 288.6C991.76 287.32 991.5 286 991.5 284.62C991.5 282.32 992.07 280.29 993.22 278.53C994.37 276.77 995.9 275.38 997.81 274.36C999.73 273.34 1001.88 272.83 1004.28 272.83C1006.83 272.83 1009.14 273.33 1011.21 274.32C1013.28 275.31 1014.9 276.71 1016.07 278.49C1017.24 280.28 1017.83 282.4 1017.83 284.85C1017.83 286.84 1017.29 288.72 1016.22 290.48C1015.15 292.24 1013.71 293.9 1011.89 295.46C1010.08 297.02 1008.02 298.59 1005.72 300.17L1000.13 304.08C999.01 304.85 997.91 305.7 996.84 306.65C995.77 307.6 994.9 308.69 994.23 309.94C993.56 311.19 993.24 312.71 993.24 314.5C993.24 317 994.12 319.05 995.88 320.63C997.64 322.21 999.87 323 1002.58 323C1005.29 323 1007.71 322.55 1010.01 321.66C1012.31 320.77 1014.34 319.48 1016.1 317.79C1017.86 316.11 1019.21 314.09 1020.16 311.74C1021.11 309.39 1021.58 306.81 1021.58 304H1027.78C1027.78 308.75 1026.69 312.99 1024.52 316.71C1022.35 320.43 1019.36 323.35 1015.56 325.44C1011.76 327.53 1007.38 328.58 1002.43 328.58L1002.45 328.56Z" fill="white"/>
<path d="M1061.8 327.48V273.87H1068.54L1087.07 301.29L1105.6 273.87H1112.27V327.48H1105.84V284.29L1087.08 312.24L1068.31 284.44V327.48H1061.8Z" fill="white"/>
<path d="M1122.08 327.48L1143.91 273.87H1150.5L1128.98 327.48H1122.09H1122.08ZM1132.42 312.24V306.42H1162.21V312.24H1132.42ZM1165.65 327.48L1144.13 273.87H1150.64L1172.47 327.48H1165.65Z" fill="white"/>
<path d="M1182.27 327.48V273.87H1199.73C1203.2 273.87 1206.28 274.56 1208.96 275.94C1211.64 277.32 1213.73 279.23 1215.24 281.68C1216.75 284.13 1217.5 286.94 1217.5 290.1C1217.5 293.26 1216.68 296.07 1215.05 298.53C1213.41 300.98 1211.19 302.91 1208.39 304.31C1205.58 305.71 1202.42 306.42 1198.89 306.42H1188.78V327.48H1182.27ZM1188.78 300.45H1200.65C1202.59 300.45 1204.33 300 1205.86 299.11C1207.39 298.22 1208.63 296.99 1209.57 295.44C1210.51 293.88 1210.99 292.11 1210.99 290.12C1210.99 287.06 1209.93 284.57 1207.81 282.65C1205.69 280.74 1202.95 279.78 1199.58 279.78H1188.78V300.46V300.45ZM1212.52 327.48L1199.66 305.5L1204.79 302.13L1219.65 327.48H1212.53H1212.52Z" fill="white"/>
<path d="M1232.13 327.48V273.87H1238.33V327.48H1232.13ZM1236.64 309.1L1233.96 303.2L1262.14 273.87H1270.26L1236.64 309.1ZM1263.37 327.48L1241.39 300.22L1245.6 296.08L1271.26 327.48H1263.37Z" fill="white"/>
<path d="M1280.76 327.48V273.87H1312.47V279.77H1287.27V297.08H1310.25V302.9H1287.27V321.59H1312.62V327.49H1280.76V327.48Z" fill="white"/>
<path d="M1338.81 327.48V279.77H1321.73V273.87H1362.32V279.77H1345.24V327.48H1338.81Z" fill="white"/>
<path d="M1372.2 327.48V273.87H1378.71V327.48H1372.2Z" fill="white"/>
<path d="M1394.87 327.48V273.87H1401.46L1433.4 316.91V273.87H1439.91V327.48H1433.4L1401.39 284.21V327.48H1394.88H1394.87Z" fill="white"/>
<path d="M1480.33 328.4C1474.87 328.4 1470.04 327.21 1465.86 324.84C1461.67 322.47 1458.39 319.2 1456.02 315.04C1453.65 310.88 1452.46 306.12 1452.46 300.76C1452.46 295.4 1453.64 290.49 1456.02 286.32C1458.39 282.16 1461.68 278.89 1465.86 276.52C1470.05 274.15 1474.87 272.96 1480.33 272.96C1483.19 272.96 1485.97 273.43 1488.68 274.38C1491.39 275.33 1493.86 276.61 1496.11 278.25C1498.36 279.89 1500.17 281.75 1501.55 283.84L1496.42 287.36C1495.4 285.73 1494.02 284.26 1492.28 282.95C1490.54 281.64 1488.64 280.64 1486.57 279.93C1484.5 279.22 1482.42 278.86 1480.33 278.86C1476.2 278.86 1472.52 279.79 1469.3 281.66C1466.08 283.53 1463.56 286.09 1461.72 289.36C1459.88 292.63 1458.96 296.43 1458.96 300.77C1458.96 305.11 1459.87 308.7 1461.68 311.99C1463.49 315.29 1466.02 317.88 1469.26 319.76C1472.5 321.65 1476.19 322.59 1480.32 322.59C1483.79 322.59 1486.87 321.86 1489.55 320.41C1492.23 318.96 1494.34 316.94 1495.87 314.36C1497.4 311.78 1498.17 308.81 1498.17 305.44L1504.37 304.98C1504.37 309.68 1503.35 313.77 1501.31 317.27C1499.27 320.77 1496.43 323.5 1492.81 325.47C1489.18 327.44 1485.02 328.42 1480.32 328.42L1480.33 328.4ZM1485 305.73V300.14H1504.38V305.2L1501.32 305.74H1485.01L1485 305.73Z" fill="white"/>
</g>
<defs>
<clipPath id="lhHeaderLogoClip">
<rect width="1920" height="373.96" fill="white"/>
</clipPath>
</defs>
</svg>
